<svg width="164" height="108" viewBox="0 0 164 108" fill="none" xmlns="http://www.w3.org/2000/svg">
<path d="M7.61382 99.1626V80.1816H11.2858V99.1626H7.61382ZM10.3138 99.1626V95.8956H19.9798V99.1626H10.3138ZM28.025 99.4326C26.711 99.4326 25.523 99.1356 24.461 98.5416C23.417 97.9296 22.58 97.1106 21.95 96.0846C21.338 95.0406 21.032 93.8796 21.032 92.6016C21.032 91.3236 21.338 90.1806 21.95 89.1726C22.562 88.1466 23.399 87.3366 24.461 86.7426C25.523 86.1306 26.702 85.8246 27.998 85.8246C29.33 85.8246 30.518 86.1306 31.562 86.7426C32.624 87.3366 33.461 88.1466 34.073 89.1726C34.685 90.1806 34.991 91.3236 34.991 92.6016C34.991 93.8796 34.685 95.0406 34.073 96.0846C33.461 97.1106 32.624 97.9296 31.562 98.5416C30.518 99.1356 29.339 99.4326 28.025 99.4326ZM27.998 96.1386C28.664 96.1386 29.249 95.9946 29.753 95.7066C30.275 95.4006 30.671 94.9866 30.941 94.4646C31.229 93.9246 31.373 93.3126 31.373 92.6286C31.373 91.9446 31.229 91.3416 30.941 90.8196C30.653 90.2976 30.257 89.8926 29.753 89.6046C29.249 89.2986 28.664 89.1456 27.998 89.1456C27.35 89.1456 26.774 89.2986 26.27 89.6046C25.766 89.8926 25.37 90.2976 25.082 90.8196C24.794 91.3416 24.65 91.9446 24.65 92.6286C24.65 93.3126 24.794 93.9246 25.082 94.4646C25.37 94.9866 25.766 95.4006 26.27 95.7066C26.774 95.9946 27.35 96.1386 27.998 96.1386ZM37.268 99.1626V86.1216H40.805V99.1626H37.268ZM40.805 91.9536L39.428 91.0356C39.59 89.4336 40.058 88.1736 40.832 87.2556C41.606 86.3196 42.722 85.8516 44.18 85.8516C44.81 85.8516 45.377 85.9596 45.881 86.1756C46.385 86.3736 46.844 86.7066 47.258 87.1746L45.044 89.7126C44.846 89.4966 44.603 89.3346 44.315 89.2266C44.045 89.1186 43.73 89.0646 43.37 89.0646C42.614 89.0646 41.993 89.3076 41.507 89.7936C41.039 90.2616 40.805 90.9816 40.805 91.9536ZM54.3683 99.4326C53.0003 99.4326 51.7853 99.1446 50.7233 98.5686C49.6613 97.9746 48.8153 97.1646 48.1853 96.1386C47.5733 95.1126 47.2673 93.9426 47.2673 92.6286C47.2673 91.3326 47.5643 90.1806 48.1583 89.1726C48.7703 88.1466 49.5983 87.3366 50.6423 86.7426C51.6863 86.1306 52.8473 85.8246 54.1253 85.8246C55.3853 85.8246 56.4923 86.1126 57.4463 86.6886C58.4183 87.2466 59.1743 88.0206 59.7143 89.0106C60.2723 89.9826 60.5513 91.0896 60.5513 92.3316C60.5513 92.5656 60.5333 92.8086 60.4973 93.0606C60.4793 93.2946 60.4343 93.5646 60.3623 93.8706L49.4003 93.8976V91.2516L58.7153 91.2246L57.2843 92.3316C57.2483 91.5576 57.1043 90.9096 56.8523 90.3876C56.6183 89.8656 56.2673 89.4696 55.7993 89.1996C55.3493 88.9116 54.7913 88.7676 54.1253 88.7676C53.4233 88.7676 52.8113 88.9296 52.2893 89.2536C51.7673 89.5596 51.3623 90.0006 51.0743 90.5766C50.8043 91.1346 50.6693 91.8006 50.6693 92.5746C50.6693 93.3666 50.8133 94.0596 51.1013 94.6536C51.4073 95.2296 51.8393 95.6796 52.3973 96.0036C52.9553 96.3096 53.6033 96.4626 54.3413 96.4626C55.0073 96.4626 55.6103 96.3546 56.1503 96.1386C56.6903 95.9046 57.1583 95.5626 57.5543 95.1126L59.6333 97.1916C59.0033 97.9296 58.2293 98.4876 57.3113 98.8656C56.4113 99.2436 55.4303 99.4326 54.3683 99.4326ZM62.7387 99.1626V86.1216H66.2757V99.1626H62.7387ZM71.2437 99.1626V91.4676C71.2437 90.7116 71.0007 90.1266 70.5147 89.7126C70.0467 89.2806 69.4617 89.0646 68.7597 89.0646C68.2917 89.0646 67.8687 89.1636 67.4907 89.3616C67.1127 89.5416 66.8157 89.8116 66.5997 90.1716C66.3837 90.5316 66.2757 90.9636 66.2757 91.4676L64.8987 90.7926C64.8987 89.7846 65.1147 88.9116 65.5467 88.1736C65.9967 87.4356 66.5997 86.8686 67.3557 86.4726C68.1117 86.0586 68.9667 85.8516 69.9207 85.8516C70.8207 85.8516 71.6397 86.0586 72.3777 86.4726C73.1157 86.8686 73.7007 87.4356 74.1327 88.1736C74.5647 88.8936 74.7807 89.7666 74.7807 90.7926V99.1626H71.2437ZM79.7487 99.1626V91.4676C79.7487 90.7116 79.5057 90.1266 79.0197 89.7126C78.5517 89.2806 77.9667 89.0646 77.2647 89.0646C76.8147 89.0646 76.3917 89.1636 75.9957 89.3616C75.6177 89.5416 75.3207 89.8116 75.1047 90.1716C74.8887 90.5316 74.7807 90.9636 74.7807 91.4676L72.7557 90.9816C72.8277 89.9376 73.1067 89.0376 73.5927 88.2816C74.0787 87.5076 74.7177 86.9136 75.5097 86.4996C76.3017 86.0676 77.1837 85.8516 78.1557 85.8516C79.1277 85.8516 80.0007 86.0586 80.7747 86.4726C81.5487 86.8686 82.1607 87.4446 82.6107 88.2006C83.0607 88.9566 83.2857 89.8566 83.2857 90.9006V99.1626H79.7487Z" fill="#DEE33E"/>
<path d="M86.5308 99.1626V80.1816H90.2028V99.1626H86.5308ZM100.956 99.4326C100.02 99.4326 99.1742 99.2436 98.4182 98.8656C97.6622 98.4696 97.0592 97.9386 96.6092 97.2726C96.1592 96.6066 95.9162 95.8416 95.8802 94.9776V90.3606C95.9162 89.4966 96.1592 88.7316 96.6092 88.0656C97.0772 87.3816 97.6802 86.8416 98.4182 86.4456C99.1742 86.0496 100.02 85.8516 100.956 85.8516C102.162 85.8516 103.242 86.1486 104.196 86.7426C105.15 87.3366 105.897 88.1466 106.437 89.1726C106.995 90.1986 107.274 91.3596 107.274 92.6556C107.274 93.9336 106.995 95.0856 106.437 96.1116C105.897 97.1376 105.15 97.9476 104.196 98.5416C103.242 99.1356 102.162 99.4326 100.956 99.4326ZM93.7202 104.617V86.1216H97.2572V89.5506L96.6632 92.7096L97.2302 95.8686V104.617H93.7202ZM100.335 96.1656C100.983 96.1656 101.559 96.0216 102.063 95.7336C102.567 95.4276 102.954 95.0136 103.224 94.4916C103.512 93.9516 103.656 93.3306 103.656 92.6286C103.656 91.9446 103.512 91.3416 103.224 90.8196C102.954 90.2796 102.567 89.8656 102.063 89.5776C101.559 89.2716 100.983 89.1186 100.335 89.1186C99.7052 89.1186 99.1382 89.2716 98.6342 89.5776C98.1302 89.8656 97.7342 90.2796 97.4462 90.8196C97.1762 91.3416 97.0412 91.9446 97.0412 92.6286C97.0412 93.3306 97.1762 93.9516 97.4462 94.4916C97.7342 95.0136 98.1212 95.4276 98.6072 95.7336C99.1112 96.0216 99.6872 96.1656 100.335 96.1656ZM114.075 99.4596C113.337 99.4596 112.608 99.3606 111.888 99.1626C111.186 98.9646 110.538 98.6946 109.944 98.3526C109.35 97.9926 108.837 97.5606 108.405 97.0566L110.511 94.9236C110.961 95.4276 111.483 95.8056 112.077 96.0576C112.671 96.3096 113.328 96.4356 114.048 96.4356C114.624 96.4356 115.056 96.3546 115.344 96.1926C115.65 96.0306 115.803 95.7876 115.803 95.4636C115.803 95.1036 115.641 94.8246 115.317 94.6266C115.011 94.4286 114.606 94.2666 114.102 94.1406C113.598 93.9966 113.067 93.8436 112.509 93.6816C111.969 93.5016 111.447 93.2766 110.943 93.0066C110.439 92.7186 110.025 92.3316 109.701 91.8456C109.395 91.3416 109.242 90.6936 109.242 89.9016C109.242 89.0736 109.44 88.3536 109.836 87.7416C110.25 87.1296 110.835 86.6526 111.591 86.3106C112.347 85.9686 113.238 85.7976 114.264 85.7976C115.344 85.7976 116.316 85.9866 117.18 86.3646C118.062 86.7426 118.791 87.3096 119.367 88.0656L117.234 90.1986C116.838 89.7126 116.388 89.3616 115.884 89.1456C115.398 88.9296 114.867 88.8216 114.291 88.8216C113.769 88.8216 113.364 88.9026 113.076 89.0646C112.806 89.2266 112.671 89.4516 112.671 89.7396C112.671 90.0636 112.824 90.3156 113.13 90.4956C113.454 90.6756 113.868 90.8376 114.372 90.9816C114.876 91.1076 115.398 91.2606 115.938 91.4406C116.496 91.6026 117.018 91.8366 117.504 92.1426C118.008 92.4486 118.413 92.8536 118.719 93.3576C119.043 93.8616 119.205 94.5096 119.205 95.3016C119.205 96.5796 118.746 97.5966 117.828 98.3526C116.91 99.0906 115.659 99.4596 114.075 99.4596ZM127.152 99.4326C126 99.4326 124.974 99.1896 124.074 98.7036C123.192 98.2176 122.499 97.5426 121.995 96.6786C121.491 95.8146 121.239 94.8156 121.239 93.6816V86.1216H124.803V93.6006C124.803 94.1406 124.893 94.6086 125.073 95.0046C125.253 95.3826 125.523 95.6706 125.883 95.8686C126.243 96.0666 126.666 96.1656 127.152 96.1656C127.89 96.1656 128.466 95.9406 128.88 95.4906C129.294 95.0406 129.501 94.4106 129.501 93.6006V86.1216H133.038V93.6816C133.038 94.8336 132.786 95.8416 132.282 96.7056C131.796 97.5696 131.103 98.2446 130.203 98.7306C129.321 99.1986 128.304 99.4326 127.152 99.4326ZM135.855 99.1626V86.1216H139.392V99.1626H135.855ZM144.36 99.1626V91.4676C144.36 90.7116 144.117 90.1266 143.631 89.7126C143.163 89.2806 142.578 89.0646 141.876 89.0646C141.408 89.0646 140.985 89.1636 140.607 89.3616C140.229 89.5416 139.932 89.8116 139.716 90.1716C139.5 90.5316 139.392 90.9636 139.392 91.4676L138.015 90.7926C138.015 89.7846 138.231 88.9116 138.663 88.1736C139.113 87.4356 139.716 86.8686 140.472 86.4726C141.228 86.0586 142.083 85.8516 143.037 85.8516C143.937 85.8516 144.756 86.0586 145.494 86.4726C146.232 86.8686 146.817 87.4356 147.249 88.1736C147.681 88.8936 147.897 89.7666 147.897 90.7926V99.1626H144.36ZM152.865 99.1626V91.4676C152.865 90.7116 152.622 90.1266 152.136 89.7126C151.668 89.2806 151.083 89.0646 150.381 89.0646C149.931 89.0646 149.508 89.1636 149.112 89.3616C148.734 89.5416 148.437 89.8116 148.221 90.1716C148.005 90.5316 147.897 90.9636 147.897 91.4676L145.872 90.9816C145.944 89.9376 146.223 89.0376 146.709 88.2816C147.195 87.5076 147.834 86.9136 148.626 86.4996C149.418 86.0676 150.3 85.8516 151.272 85.8516C152.244 85.8516 153.117 86.0586 153.891 86.4726C154.665 86.8686 155.277 87.4446 155.727 88.2006C156.177 88.9566 156.402 89.8566 156.402 90.9006V99.1626H152.865Z" fill="black"/>
<path d="M62.5053 19.2104C60.0012 11.5036 64.2188 3.22614 71.9255 0.722079C79.6322 -1.78199 87.9097 2.4356 90.4138 10.1423L101.595 44.5538C104.099 52.2605 99.8812 60.538 92.1745 63.0421C84.4678 65.5461 76.1903 61.3285 73.6862 53.6218L62.5053 19.2104Z" fill="#DEE33E"/>
<path d="M101.537 19.2104C99.0326 11.5036 103.25 3.22614 110.957 0.722079C118.664 -1.78199 126.941 2.4356 129.445 10.1423L140.626 44.5538C143.13 52.2605 138.913 60.538 131.206 63.0421C123.499 65.5461 115.222 61.3285 112.718 53.6218L101.537 19.2104Z" fill="#DEE33E"/>
<path d="M22.2841 19.2104C19.78 11.5036 23.9976 3.22614 31.7043 0.722079C39.4111 -1.78199 47.6885 2.4356 50.1926 10.1423L61.3736 44.5538C63.8776 52.2605 59.66 60.538 51.9533 63.0421C44.2466 65.5461 35.9691 61.3285 33.465 53.6218L22.2841 19.2104Z" fill="#DEE33E"/>
</svg>
