<svg width="85" height="22" viewBox="0 0 85 22" fill="none" xmlns="http://www.w3.org/2000/svg">
<circle cx="10.7861" cy="10.786" r="8.23951" stroke="#04091E" stroke-width="1.5" stroke-linecap="round" stroke-linejoin="round"/>
<path d="M16.5168 16.9447L19.7472 20.1667" stroke="#04091E" stroke-width="1.5" stroke-linecap="round" stroke-linejoin="round"/>
<path d="M38.263 16.182C37.7403 16.182 37.234 16.1003 36.744 15.937C36.2587 15.7737 35.834 15.5403 35.47 15.237C35.106 14.9337 34.8493 14.572 34.7 14.152L35.617 13.809C35.7197 14.0983 35.9063 14.348 36.177 14.558C36.4523 14.7633 36.772 14.922 37.136 15.034C37.5047 15.146 37.8803 15.202 38.263 15.202C38.711 15.202 39.1287 15.1273 39.516 14.978C39.9033 14.8287 40.216 14.621 40.454 14.355C40.692 14.0843 40.811 13.767 40.811 13.403C40.811 13.0343 40.6873 12.731 40.44 12.493C40.1927 12.255 39.873 12.0683 39.481 11.933C39.0937 11.793 38.6877 11.6857 38.263 11.611C37.5957 11.4943 36.996 11.3357 36.464 11.135C35.9367 10.9343 35.519 10.652 35.211 10.288C34.903 9.91933 34.749 9.434 34.749 8.832C34.749 8.26733 34.9123 7.77733 35.239 7.362C35.5657 6.94667 35.995 6.62467 36.527 6.396C37.0637 6.16733 37.6423 6.053 38.263 6.053C38.7717 6.053 39.2687 6.13233 39.754 6.291C40.2393 6.44967 40.6663 6.68067 41.035 6.984C41.4083 7.28733 41.6767 7.65833 41.84 8.097L40.909 8.433C40.8063 8.139 40.6173 7.88933 40.342 7.684C40.0713 7.474 39.754 7.31533 39.39 7.208C39.026 7.096 38.6503 7.04 38.263 7.04C37.8197 7.03533 37.4043 7.11 37.017 7.264C36.6343 7.41333 36.324 7.62333 36.086 7.894C35.848 8.16 35.729 8.47267 35.729 8.832C35.729 9.252 35.8387 9.57633 36.058 9.805C36.282 10.029 36.5853 10.197 36.968 10.309C37.3507 10.421 37.7823 10.5213 38.263 10.61C38.8883 10.7173 39.4693 10.8853 40.006 11.114C40.5427 11.338 40.9743 11.639 41.301 12.017C41.6277 12.3903 41.791 12.8523 41.791 13.403C41.791 13.963 41.6277 14.453 41.301 14.873C40.9743 15.2883 40.5427 15.6103 40.006 15.839C39.474 16.0677 38.893 16.182 38.263 16.182ZM46.3692 16.182C45.7252 16.182 45.1372 16.0163 44.6052 15.685C44.0779 15.3537 43.6556 14.9103 43.3382 14.355C43.0256 13.795 42.8692 13.1767 42.8692 12.5C42.8692 11.9867 42.9602 11.5083 43.1422 11.065C43.3242 10.617 43.5739 10.225 43.8912 9.889C44.2132 9.54833 44.5866 9.28233 45.0112 9.091C45.4359 8.89967 45.8886 8.804 46.3692 8.804C46.8872 8.804 47.3632 8.90667 47.7972 9.112C48.2359 9.31733 48.6116 9.60433 48.9242 9.973C49.2416 10.3417 49.4796 10.7733 49.6382 11.268C49.8016 11.7627 49.8692 12.297 49.8412 12.871H43.9052C43.9612 13.3143 44.1012 13.711 44.3252 14.061C44.5539 14.411 44.8432 14.6887 45.1932 14.894C45.5479 15.0947 45.9399 15.1973 46.3692 15.202C46.8359 15.202 47.2559 15.0807 47.6292 14.838C48.0072 14.5953 48.3106 14.2617 48.5392 13.837L49.5332 14.068C49.2532 14.6887 48.8309 15.1973 48.2662 15.594C47.7016 15.986 47.0692 16.182 46.3692 16.182ZM43.8772 12.08H48.8542C48.8216 11.646 48.6886 11.2493 48.4552 10.89C48.2266 10.526 47.9302 10.2367 47.5662 10.022C47.2022 9.80267 46.8032 9.693 46.3692 9.693C45.9352 9.693 45.5386 9.80033 45.1792 10.015C44.8199 10.225 44.5259 10.512 44.2972 10.876C44.0686 11.2353 43.9286 11.6367 43.8772 12.08ZM56.7268 9H57.7068V16H56.7268L56.6918 14.698C56.4631 15.1413 56.1435 15.5007 55.7328 15.776C55.3221 16.0467 54.8321 16.182 54.2628 16.182C53.7495 16.182 53.2688 16.0863 52.8208 15.895C52.3728 15.699 51.9785 15.4307 51.6378 15.09C51.2971 14.7493 51.0311 14.355 50.8398 13.907C50.6485 13.459 50.5528 12.9783 50.5528 12.465C50.5528 11.961 50.6461 11.4873 50.8328 11.044C51.0241 10.6007 51.2855 10.211 51.6168 9.875C51.9528 9.539 52.3401 9.27767 52.7788 9.091C53.2221 8.89967 53.6958 8.804 54.1998 8.804C54.7831 8.804 55.2918 8.944 55.7258 9.224C56.1598 9.49933 56.5051 9.861 56.7618 10.309L56.7268 9ZM54.2418 15.23C54.7411 15.23 55.1705 15.1087 55.5298 14.866C55.8891 14.6187 56.1645 14.2873 56.3558 13.872C56.5518 13.4567 56.6498 12.9993 56.6498 12.5C56.6498 11.9867 56.5518 11.5247 56.3558 11.114C56.1598 10.6987 55.8821 10.3697 55.5228 10.127C55.1635 9.88433 54.7365 9.763 54.2418 9.763C53.7471 9.763 53.2945 9.88667 52.8838 10.134C52.4778 10.3767 52.1535 10.7057 51.9108 11.121C51.6728 11.5363 51.5538 11.996 51.5538 12.5C51.5538 13.0087 51.6775 13.4707 51.9248 13.886C52.1721 14.2967 52.4988 14.6233 52.9048 14.866C53.3155 15.1087 53.7611 15.23 54.2418 15.23ZM59.1076 16V9H60.0876V9.966C60.3349 9.61133 60.6569 9.329 61.0536 9.119C61.4502 8.909 61.8819 8.804 62.3486 8.804C62.6192 8.804 62.8806 8.839 63.1326 8.909L62.7336 9.882C62.5376 9.82133 62.3462 9.791 62.1596 9.791C61.7816 9.791 61.4339 9.88433 61.1166 10.071C60.8039 10.2577 60.5542 10.5073 60.3676 10.82C60.1809 11.1327 60.0876 11.4803 60.0876 11.863V16H59.1076ZM68.6446 14.243L69.5196 14.719C69.2023 15.1623 68.7986 15.517 68.3086 15.783C67.8233 16.049 67.296 16.182 66.7266 16.182C66.0826 16.182 65.4946 16.0163 64.9626 15.685C64.4353 15.3537 64.013 14.9103 63.6956 14.355C63.383 13.795 63.2266 13.1767 63.2266 12.5C63.2266 11.9867 63.3176 11.5083 63.4996 11.065C63.6816 10.617 63.9313 10.225 64.2486 9.889C64.5706 9.54833 64.944 9.28233 65.3686 9.091C65.7933 8.89967 66.246 8.804 66.7266 8.804C67.296 8.804 67.8233 8.937 68.3086 9.203C68.7986 9.469 69.2023 9.826 69.5196 10.274L68.6446 10.743C68.402 10.435 68.1103 10.1993 67.7696 10.036C67.429 9.868 67.0813 9.784 66.7266 9.784C66.2553 9.784 65.8283 9.91 65.4456 10.162C65.063 10.4093 64.7596 10.7383 64.5356 11.149C64.3163 11.5597 64.2066 12.01 64.2066 12.5C64.2066 12.99 64.3186 13.4403 64.5426 13.851C64.7713 14.2617 65.077 14.5907 65.4596 14.838C65.8423 15.0807 66.2646 15.202 66.7266 15.202C67.1093 15.202 67.4686 15.1133 67.8046 14.936C68.1406 14.7587 68.4206 14.5277 68.6446 14.243ZM76.7917 11.667V16H75.8117V11.863C75.8117 11.4803 75.7183 11.1327 75.5317 10.82C75.345 10.5073 75.0953 10.2577 74.7827 10.071C74.47 9.88433 74.1223 9.791 73.7397 9.791C73.3617 9.791 73.014 9.88433 72.6967 10.071C72.384 10.2577 72.1343 10.5073 71.9477 10.82C71.761 11.1327 71.6677 11.4803 71.6677 11.863V16H70.6877V5.5H71.6677V9.966C71.915 9.61133 72.237 9.329 72.6337 9.119C73.0303 8.909 73.462 8.804 73.9287 8.804C74.456 8.804 74.9367 8.93233 75.3707 9.189C75.8047 9.44567 76.15 9.791 76.4067 10.225C76.6633 10.659 76.7917 11.1397 76.7917 11.667ZM78.4665 16.182C78.3125 16.182 78.1818 16.126 78.0745 16.014C77.9672 15.9067 77.9135 15.7737 77.9135 15.615C77.9135 15.4657 77.9672 15.3373 78.0745 15.23C78.1818 15.118 78.3125 15.062 78.4665 15.062C78.6252 15.062 78.7582 15.118 78.8655 15.23C78.9775 15.3373 79.0335 15.4657 79.0335 15.615C79.0335 15.7737 78.9775 15.9067 78.8655 16.014C78.7582 16.126 78.6252 16.182 78.4665 16.182ZM80.9821 16.182C80.8281 16.182 80.6975 16.126 80.5901 16.014C80.4828 15.9067 80.4291 15.7737 80.4291 15.615C80.4291 15.4657 80.4828 15.3373 80.5901 15.23C80.6975 15.118 80.8281 15.062 80.9821 15.062C81.1408 15.062 81.2738 15.118 81.3811 15.23C81.4931 15.3373 81.5491 15.4657 81.5491 15.615C81.5491 15.7737 81.4931 15.9067 81.3811 16.014C81.2738 16.126 81.1408 16.182 80.9821 16.182ZM83.4978 16.182C83.3438 16.182 83.2131 16.126 83.1058 16.014C82.9984 15.9067 82.9448 15.7737 82.9448 15.615C82.9448 15.4657 82.9984 15.3373 83.1058 15.23C83.2131 15.118 83.3438 15.062 83.4978 15.062C83.6564 15.062 83.7894 15.118 83.8968 15.23C84.0088 15.3373 84.0648 15.4657 84.0648 15.615C84.0648 15.7737 84.0088 15.9067 83.8968 16.014C83.7894 16.126 83.6564 16.182 83.4978 16.182Z" fill="#747681"/>
</svg>
